<svg width="124" height="120" viewBox="0 0 124 120" fill="none" xmlns="http://www.w3.org/2000/svg">
<path d="M120 58C120 42.6174 113.889 27.8649 103.012 16.9878C92.1351 6.1107 77.3826 1.16135e-06 62 0C46.6174 -1.16135e-06 31.8649 6.11069 20.9878 16.9878C10.1107 27.8649 4 42.6174 4 58H23.0753C23.0753 47.6765 27.1763 37.7759 34.4761 30.4761C41.7759 23.1763 51.6765 19.0753 62 19.0753C72.3235 19.0753 82.2241 23.1763 89.5239 30.4761C96.8237 37.7759 100.925 47.6765 100.925 58H120Z" fill="#076B44"/>
<g filter="url(#filter0_d_73_1744)">
<rect x="4" y="62" width="18" height="50" fill="#F08B23"/>
</g>
<g filter="url(#filter1_d_73_1744)">
<rect x="101" y="62" width="19" height="50" fill="#F08B23"/>
</g>
<g filter="url(#filter2_d_73_1744)">
<ellipse cx="62" cy="63.5" rx="14" ry="13.5" fill="#777777"/>
</g>
<defs>
<filter id="filter0_d_73_1744" x="0" y="62" width="26" height="58" filterUnits="userSpaceOnUse" color-interpolation-filters="sRGB">
<feFlood flood-opacity="0" result="BackgroundImageFix"/>
<feColorMatrix in="SourceAlpha" type="matrix" values="0 0 0 0 0 0 0 0 0 0 0 0 0 0 0 0 0 0 127 0" result="hardAlpha"/>
<feOffset dy="4"/>
<feGaussianBlur stdDeviation="2"/>
<feComposite in2="hardAlpha" operator="out"/>
<feColorMatrix type="matrix" values="0 0 0 0 0 0 0 0 0 0 0 0 0 0 0 0 0 0 0.25 0"/>
<feBlend mode="normal" in2="BackgroundImageFix" result="effect1_dropShadow_73_1744"/>
<feBlend mode="normal" in="SourceGraphic" in2="effect1_dropShadow_73_1744" result="shape"/>
</filter>
<filter id="filter1_d_73_1744" x="97" y="62" width="27" height="58" filterUnits="userSpaceOnUse" color-interpolation-filters="sRGB">
<feFlood flood-opacity="0" result="BackgroundImageFix"/>
<feColorMatrix in="SourceAlpha" type="matrix" values="0 0 0 0 0 0 0 0 0 0 0 0 0 0 0 0 0 0 127 0" result="hardAlpha"/>
<feOffset dy="4"/>
<feGaussianBlur stdDeviation="2"/>
<feComposite in2="hardAlpha" operator="out"/>
<feColorMatrix type="matrix" values="0 0 0 0 0 0 0 0 0 0 0 0 0 0 0 0 0 0 0.25 0"/>
<feBlend mode="normal" in2="BackgroundImageFix" result="effect1_dropShadow_73_1744"/>
<feBlend mode="normal" in="SourceGraphic" in2="effect1_dropShadow_73_1744" result="shape"/>
</filter>
<filter id="filter2_d_73_1744" x="44" y="50" width="36" height="35" filterUnits="userSpaceOnUse" color-interpolation-filters="sRGB">
<feFlood flood-opacity="0" result="BackgroundImageFix"/>
<feColorMatrix in="SourceAlpha" type="matrix" values="0 0 0 0 0 0 0 0 0 0 0 0 0 0 0 0 0 0 127 0" result="hardAlpha"/>
<feOffset dy="4"/>
<feGaussianBlur stdDeviation="2"/>
<feComposite in2="hardAlpha" operator="out"/>
<feColorMatrix type="matrix" values="0 0 0 0 0 0 0 0 0 0 0 0 0 0 0 0 0 0 0.25 0"/>
<feBlend mode="normal" in2="BackgroundImageFix" result="effect1_dropShadow_73_1744"/>
<feBlend mode="normal" in="SourceGraphic" in2="effect1_dropShadow_73_1744" result="shape"/>
</filter>
</defs>
</svg>
