<svg width="714" height="691" viewBox="0 0 714 691" fill="none" xmlns="http://www.w3.org/2000/svg">
<path d="M697.092 404.522C697.092 644.214 670.903 690.522 432.592 690.522C194.281 690.522 1.09231 496.214 1.09231 256.522C1.09231 16.8306 -27.7186 45.0224 210.592 45.0224C448.903 45.0224 697.092 164.831 697.092 404.522Z" fill="#F08B23" fill-opacity="0.67"/>
<path d="M713.092 360.522C713.092 600.214 686.903 646.522 448.592 646.522C210.281 646.522 17.0923 452.214 17.0923 212.522C17.0923 -27.1694 -11.7186 1.02241 226.592 1.02241C464.903 1.02241 713.092 120.831 713.092 360.522Z" fill="url(#paint0_linear_56_19)"/>
<g filter="url(#filter0_i_56_19)">
<path d="M277.8 400.7C272.6 400.7 268.5 399.5 265.5 397.1C262.5 394.5 261 391 261 386.6C261 385 261.1 383.7 261.3 382.7L279.9 277.7C285.1 247.7 297.1 224.8 315.9 209C334.9 193 359.4 185 389.4 185C414.6 185 434.3 191.6 448.5 204.8C462.9 217.8 470.1 235.6 470.1 258.2C470.1 264.6 469.5 271.1 468.3 277.7L449.7 382.7C448.7 388.3 446.1 392.7 441.9 395.9C437.7 399.1 432.6 400.7 426.6 400.7C421.4 400.7 417.2 399.4 414 396.8C411 394.2 409.5 390.7 409.5 386.3C409.5 384.7 409.6 383.5 409.8 382.7L418.5 333.8H309.9L301.2 382.7C300.2 388.1 297.5 392.5 293.1 395.9C288.9 399.1 283.8 400.7 277.8 400.7ZM423.9 302.9L428.4 276.8C429.8 268.4 430.5 261.9 430.5 257.3C430.5 243.5 426.7 233.3 419.1 226.7C411.7 219.9 400.3 216.5 384.9 216.5C348.7 216.5 327 236.6 319.8 276.8L315.3 302.9H423.9Z" fill="url(#paint1_linear_56_19)"/>
</g>
<defs>
<filter id="filter0_i_56_19" x="261" y="185" width="209.1" height="219.7" filterUnits="userSpaceOnUse" color-interpolation-filters="sRGB">
<feFlood flood-opacity="0" result="BackgroundImageFix"/>
<feBlend mode="normal" in="SourceGraphic" in2="BackgroundImageFix" result="shape"/>
<feColorMatrix in="SourceAlpha" type="matrix" values="0 0 0 0 0 0 0 0 0 0 0 0 0 0 0 0 0 0 127 0" result="hardAlpha"/>
<feOffset dy="4"/>
<feGaussianBlur stdDeviation="5"/>
<feComposite in2="hardAlpha" operator="arithmetic" k2="-1" k3="1"/>
<feColorMatrix type="matrix" values="0 0 0 0 0 0 0 0 0 0 0 0 0 0 0 0 0 0 0.5 0"/>
<feBlend mode="normal" in2="shape" result="effect1_innerShadow_56_19"/>
</filter>
<linearGradient id="paint0_linear_56_19" x1="187.5" y1="61" x2="50.5" y2="551.5" gradientUnits="userSpaceOnUse">
<stop stop-color="#076B44"/>
<stop offset="1" stop-color="#129461" stop-opacity="0.92"/>
</linearGradient>
<linearGradient id="paint1_linear_56_19" x1="366" y1="91" x2="366" y2="481" gradientUnits="userSpaceOnUse">
<stop stop-color="#F08B23"/>
<stop offset="1" stop-color="#DAB48D"/>
</linearGradient>
</defs>
</svg>
